<svg version="1.1" xmlns="http://www.w3.org/2000/svg" xmlns:xlink="http://www.w3.org/1999/xlink" width="652.29541015625" height="514"><defs/><g><text fill="#eeeeee" stroke="none" font-family="Arial" font-size="24px" font-style="normal" font-weight="normal" text-decoration="none" x="0" y="0">UNREGISTERED</text><text fill="#eeeeee" stroke="none" font-family="Arial" font-size="24px" font-style="normal" font-weight="normal" text-decoration="none" x="0" y="30">UNREGISTERED</text><text fill="#eeeeee" stroke="none" font-family="Arial" font-size="24px" font-style="normal" font-weight="normal" text-decoration="none" x="0" y="60">UNREGISTERED</text><text fill="#eeeeee" stroke="none" font-family="Arial" font-size="24px" font-style="normal" font-weight="normal" text-decoration="none" x="0" y="90">UNREGISTERED</text><text fill="#eeeeee" stroke="none" font-family="Arial" font-size="24px" font-style="normal" font-weight="normal" text-decoration="none" x="0" y="120">UNREGISTERED</text><text fill="#eeeeee" stroke="none" font-family="Arial" font-size="24px" font-style="normal" font-weight="normal" text-decoration="none" x="0" y="150">UNREGISTERED</text><text fill="#eeeeee" stroke="none" font-family="Arial" font-size="24px" font-style="normal" font-weight="normal" text-decoration="none" x="0" y="180">UNREGISTERED</text><text fill="#eeeeee" stroke="none" font-family="Arial" font-size="24px" font-style="normal" font-weight="normal" text-decoration="none" x="0" y="210">UNREGISTERED</text><text fill="#eeeeee" stroke="none" font-family="Arial" font-size="24px" font-style="normal" font-weight="normal" text-decoration="none" x="0" y="240">UNREGISTERED</text><text fill="#eeeeee" stroke="none" font-family="Arial" font-size="24px" font-style="normal" font-weight="normal" text-decoration="none" x="0" y="270">UNREGISTERED</text><text fill="#eeeeee" stroke="none" font-family="Arial" font-size="24px" font-style="normal" font-weight="normal" text-decoration="none" x="0" y="300">UNREGISTERED</text><text fill="#eeeeee" stroke="none" font-family="Arial" font-size="24px" font-style="normal" font-weight="normal" text-decoration="none" x="0" y="330">UNREGISTERED</text><text fill="#eeeeee" stroke="none" font-family="Arial" font-size="24px" font-style="normal" font-weight="normal" text-decoration="none" x="0" y="360">UNREGISTERED</text><text fill="#eeeeee" stroke="none" font-family="Arial" font-size="24px" font-style="normal" font-weight="normal" text-decoration="none" x="0" y="390">UNREGISTERED</text><text fill="#eeeeee" stroke="none" font-family="Arial" font-size="24px" font-style="normal" font-weight="normal" text-decoration="none" x="0" y="420">UNREGISTERED</text><text fill="#eeeeee" stroke="none" font-family="Arial" font-size="24px" font-style="normal" font-weight="normal" text-decoration="none" x="0" y="450">UNREGISTERED</text><text fill="#eeeeee" stroke="none" font-family="Arial" font-size="24px" font-style="normal" font-weight="normal" text-decoration="none" x="0" y="480">UNREGISTERED</text><text fill="#eeeeee" stroke="none" font-family="Arial" font-size="24px" font-style="normal" font-weight="normal" text-decoration="none" x="0" y="510">UNREGISTERED</text><text fill="#eeeeee" stroke="none" font-family="Arial" font-size="24px" font-style="normal" font-weight="normal" text-decoration="none" x="200" y="0">UNREGISTERED</text><text fill="#eeeeee" stroke="none" font-family="Arial" font-size="24px" font-style="normal" font-weight="normal" text-decoration="none" x="200" y="30">UNREGISTERED</text><text fill="#eeeeee" stroke="none" font-family="Arial" font-size="24px" font-style="normal" font-weight="normal" text-decoration="none" x="200" y="60">UNREGISTERED</text><text fill="#eeeeee" stroke="none" font-family="Arial" font-size="24px" font-style="normal" font-weight="normal" text-decoration="none" x="200" y="90">UNREGISTERED</text><text fill="#eeeeee" stroke="none" font-family="Arial" font-size="24px" font-style="normal" font-weight="normal" text-decoration="none" x="200" y="120">UNREGISTERED</text><text fill="#eeeeee" stroke="none" font-family="Arial" font-size="24px" font-style="normal" font-weight="normal" text-decoration="none" x="200" y="150">UNREGISTERED</text><text fill="#eeeeee" stroke="none" font-family="Arial" font-size="24px" font-style="normal" font-weight="normal" text-decoration="none" x="200" y="180">UNREGISTERED</text><text fill="#eeeeee" stroke="none" font-family="Arial" font-size="24px" font-style="normal" font-weight="normal" text-decoration="none" x="200" y="210">UNREGISTERED</text><text fill="#eeeeee" stroke="none" font-family="Arial" font-size="24px" font-style="normal" font-weight="normal" text-decoration="none" x="200" y="240">UNREGISTERED</text><text fill="#eeeeee" stroke="none" font-family="Arial" font-size="24px" font-style="normal" font-weight="normal" text-decoration="none" x="200" y="270">UNREGISTERED</text><text fill="#eeeeee" stroke="none" font-family="Arial" font-size="24px" font-style="normal" font-weight="normal" text-decoration="none" x="200" y="300">UNREGISTERED</text><text fill="#eeeeee" stroke="none" font-family="Arial" font-size="24px" font-style="normal" font-weight="normal" text-decoration="none" x="200" y="330">UNREGISTERED</text><text fill="#eeeeee" stroke="none" font-family="Arial" font-size="24px" font-style="normal" font-weight="normal" text-decoration="none" x="200" y="360">UNREGISTERED</text><text fill="#eeeeee" stroke="none" font-family="Arial" font-size="24px" font-style="normal" font-weight="normal" text-decoration="none" x="200" y="390">UNREGISTERED</text><text fill="#eeeeee" stroke="none" font-family="Arial" font-size="24px" font-style="normal" font-weight="normal" text-decoration="none" x="200" y="420">UNREGISTERED</text><text fill="#eeeeee" stroke="none" font-family="Arial" font-size="24px" font-style="normal" font-weight="normal" text-decoration="none" x="200" y="450">UNREGISTERED</text><text fill="#eeeeee" stroke="none" font-family="Arial" font-size="24px" font-style="normal" font-weight="normal" text-decoration="none" x="200" y="480">UNREGISTERED</text><text fill="#eeeeee" stroke="none" font-family="Arial" font-size="24px" font-style="normal" font-weight="normal" text-decoration="none" x="200" y="510">UNREGISTERED</text><text fill="#eeeeee" stroke="none" font-family="Arial" font-size="24px" font-style="normal" font-weight="normal" text-decoration="none" x="400" y="0">UNREGISTERED</text><text fill="#eeeeee" stroke="none" font-family="Arial" font-size="24px" font-style="normal" font-weight="normal" text-decoration="none" x="400" y="30">UNREGISTERED</text><text fill="#eeeeee" stroke="none" font-family="Arial" font-size="24px" font-style="normal" font-weight="normal" text-decoration="none" x="400" y="60">UNREGISTERED</text><text fill="#eeeeee" stroke="none" font-family="Arial" font-size="24px" font-style="normal" font-weight="normal" text-decoration="none" x="400" y="90">UNREGISTERED</text><text fill="#eeeeee" stroke="none" font-family="Arial" font-size="24px" font-style="normal" font-weight="normal" text-decoration="none" x="400" y="120">UNREGISTERED</text><text fill="#eeeeee" stroke="none" font-family="Arial" font-size="24px" font-style="normal" font-weight="normal" text-decoration="none" x="400" y="150">UNREGISTERED</text><text fill="#eeeeee" stroke="none" font-family="Arial" font-size="24px" font-style="normal" font-weight="normal" text-decoration="none" x="400" y="180">UNREGISTERED</text><text fill="#eeeeee" stroke="none" font-family="Arial" font-size="24px" font-style="normal" font-weight="normal" text-decoration="none" x="400" y="210">UNREGISTERED</text><text fill="#eeeeee" stroke="none" font-family="Arial" font-size="24px" font-style="normal" font-weight="normal" text-decoration="none" x="400" y="240">UNREGISTERED</text><text fill="#eeeeee" stroke="none" font-family="Arial" font-size="24px" font-style="normal" font-weight="normal" text-decoration="none" x="400" y="270">UNREGISTERED</text><text fill="#eeeeee" stroke="none" font-family="Arial" font-size="24px" font-style="normal" font-weight="normal" text-decoration="none" x="400" y="300">UNREGISTERED</text><text fill="#eeeeee" stroke="none" font-family="Arial" font-size="24px" font-style="normal" font-weight="normal" text-decoration="none" x="400" y="330">UNREGISTERED</text><text fill="#eeeeee" stroke="none" font-family="Arial" font-size="24px" font-style="normal" font-weight="normal" text-decoration="none" x="400" y="360">UNREGISTERED</text><text fill="#eeeeee" stroke="none" font-family="Arial" font-size="24px" font-style="normal" font-weight="normal" text-decoration="none" x="400" y="390">UNREGISTERED</text><text fill="#eeeeee" stroke="none" font-family="Arial" font-size="24px" font-style="normal" font-weight="normal" text-decoration="none" x="400" y="420">UNREGISTERED</text><text fill="#eeeeee" stroke="none" font-family="Arial" font-size="24px" font-style="normal" font-weight="normal" text-decoration="none" x="400" y="450">UNREGISTERED</text><text fill="#eeeeee" stroke="none" font-family="Arial" font-size="24px" font-style="normal" font-weight="normal" text-decoration="none" x="400" y="480">UNREGISTERED</text><text fill="#eeeeee" stroke="none" font-family="Arial" font-size="24px" font-style="normal" font-weight="normal" text-decoration="none" x="400" y="510">UNREGISTERED</text><text fill="#eeeeee" stroke="none" font-family="Arial" font-size="24px" font-style="normal" font-weight="normal" text-decoration="none" x="600" y="0">UNREGISTERED</text><text fill="#eeeeee" stroke="none" font-family="Arial" font-size="24px" font-style="normal" font-weight="normal" text-decoration="none" x="600" y="30">UNREGISTERED</text><text fill="#eeeeee" stroke="none" font-family="Arial" font-size="24px" font-style="normal" font-weight="normal" text-decoration="none" x="600" y="60">UNREGISTERED</text><text fill="#eeeeee" stroke="none" font-family="Arial" font-size="24px" font-style="normal" font-weight="normal" text-decoration="none" x="600" y="90">UNREGISTERED</text><text fill="#eeeeee" stroke="none" font-family="Arial" font-size="24px" font-style="normal" font-weight="normal" text-decoration="none" x="600" y="120">UNREGISTERED</text><text fill="#eeeeee" stroke="none" font-family="Arial" font-size="24px" font-style="normal" font-weight="normal" text-decoration="none" x="600" y="150">UNREGISTERED</text><text fill="#eeeeee" stroke="none" font-family="Arial" font-size="24px" font-style="normal" font-weight="normal" text-decoration="none" x="600" y="180">UNREGISTERED</text><text fill="#eeeeee" stroke="none" font-family="Arial" font-size="24px" font-style="normal" font-weight="normal" text-decoration="none" x="600" y="210">UNREGISTERED</text><text fill="#eeeeee" stroke="none" font-family="Arial" font-size="24px" font-style="normal" font-weight="normal" text-decoration="none" x="600" y="240">UNREGISTERED</text><text fill="#eeeeee" stroke="none" font-family="Arial" font-size="24px" font-style="normal" font-weight="normal" text-decoration="none" x="600" y="270">UNREGISTERED</text><text fill="#eeeeee" stroke="none" font-family="Arial" font-size="24px" font-style="normal" font-weight="normal" text-decoration="none" x="600" y="300">UNREGISTERED</text><text fill="#eeeeee" stroke="none" font-family="Arial" font-size="24px" font-style="normal" font-weight="normal" text-decoration="none" x="600" y="330">UNREGISTERED</text><text fill="#eeeeee" stroke="none" font-family="Arial" font-size="24px" font-style="normal" font-weight="normal" text-decoration="none" x="600" y="360">UNREGISTERED</text><text fill="#eeeeee" stroke="none" font-family="Arial" font-size="24px" font-style="normal" font-weight="normal" text-decoration="none" x="600" y="390">UNREGISTERED</text><text fill="#eeeeee" stroke="none" font-family="Arial" font-size="24px" font-style="normal" font-weight="normal" text-decoration="none" x="600" y="420">UNREGISTERED</text><text fill="#eeeeee" stroke="none" font-family="Arial" font-size="24px" font-style="normal" font-weight="normal" text-decoration="none" x="600" y="450">UNREGISTERED</text><text fill="#eeeeee" stroke="none" font-family="Arial" font-size="24px" font-style="normal" font-weight="normal" text-decoration="none" x="600" y="480">UNREGISTERED</text><text fill="#eeeeee" stroke="none" font-family="Arial" font-size="24px" font-style="normal" font-weight="normal" text-decoration="none" x="600" y="510">UNREGISTERED</text><g transform="translate(-126,-62) scale(1,1)"><path fill="none" stroke="#000000" d="M 368 224 L 535 224 L 535 463 L 368 463 L 368 224" stroke-miterlimit="10"/></g><g transform="translate(-126,-62) scale(1,1)"><path fill="#ffffff" stroke="none" d="M 368 224 L 368 246 L 405.68994140625 246 L 416.68994140625 235 L 416.68994140625 224 L 368 224"/></g><g transform="translate(-126,-62) scale(1,1)"><path fill="none" stroke="#000000" d="M 368 224 L 368 246 L 405.68994140625 246 L 416.68994140625 235 L 416.68994140625 224 L 368 224 L 368 224" stroke-miterlimit="10"/></g><g transform="translate(-126,-62) scale(1,1)"><g><path fill="none" stroke="none"/><text fill="#000000" stroke="none" font-family="Arial" font-size="13px" font-style="normal" font-weight="normal" text-decoration="none" x="379" y="241.5">gab</text></g></g><g transform="translate(-126,-62) scale(1,1)"><g><path fill="none" stroke="none"/><text fill="#000000" stroke="none" font-family="Arial" font-size="13px" font-style="normal" font-weight="bold" text-decoration="none" x="373" y="241.5"></text></g></g><g transform="translate(-126,-62) scale(1,1)"><path fill="#C0C0C0" stroke="none" d="M 415 328 C 415 318.6111584 437.6096176 311 465.5 311 C 493.3903824 311 516 318.6111584 516 328 C 516 337.3888416 493.3903824 345 465.5 345 C 437.6096176 345 415 337.3888416 415 328 Z" opacity="0.2"/></g><g transform="translate(-126,-62) scale(1,1)"><path fill="#ffffff" stroke="none" d="M 408 321 C 408 311.6111584 430.6096176 304 458.5 304 C 486.3903824 304 509 311.6111584 509 321 C 509 330.3888416 486.3903824 338 458.5 338 C 430.6096176 338 408 330.3888416 408 321 Z"/></g><g transform="translate(-126,-62) scale(1,1)"><path fill="none" stroke="#000000" d="M 408 321 C 408 311.6111584 430.6096176 304 458.5 304 C 486.3903824 304 509 311.6111584 509 321 C 509 330.3888416 486.3903824 338 458.5 338 C 430.6096176 338 408 330.3888416 408 321 Z" stroke-miterlimit="10"/></g><g transform="translate(-126,-62) scale(1,1)"><g><path fill="none" stroke="none"/><text fill="#000000" stroke="none" font-family="Arial" font-size="13px" font-style="normal" font-weight="bold" text-decoration="none" x="444.773193359375" y="328">GAB</text></g></g><g transform="translate(-126,-62) scale(1,1)"><path fill="#ffffff" stroke="none" d="M 189.67204563210228 81.68 C 189.67204563210228 76.886167936 193.55788795704774 73 198.351318359375 73 C 203.14474876170226 73 207.03059108664772 76.886167936 207.03059108664772 81.68 C 207.03059108664772 86.473832064 203.14474876170226 90.36 198.351318359375 90.36 C 193.55788795704774 90.36 189.67204563210228 86.473832064 189.67204563210228 81.68 Z"/></g><g transform="translate(-126,-62) scale(1,1)"><path fill="none" stroke="#000000" d="M 189.67204563210228 81.68 C 189.67204563210228 76.886167936 193.55788795704774 73 198.351318359375 73 C 203.14474876170226 73 207.03059108664772 76.886167936 207.03059108664772 81.68 C 207.03059108664772 86.473832064 203.14474876170226 90.36 198.351318359375 90.36 C 193.55788795704774 90.36 189.67204563210228 86.473832064 189.67204563210228 81.68 Z" stroke-miterlimit="10"/></g><g transform="translate(-126,-62) scale(1,1)"><path fill="none" stroke="#000000" d="M 198.351318359375 90.36 L 198.351318359375 107.64" stroke-miterlimit="10"/></g><g transform="translate(-126,-62) scale(1,1)"><path fill="none" stroke="#000000" d="M 189.16150017755683 96.84 L 207.54113654119317 96.84" stroke-miterlimit="10"/></g><g transform="translate(-126,-62) scale(1,1)"><path fill="none" stroke="#000000" d="M 198.351318359375 107.64 L 185.58768199573865 125" stroke-miterlimit="10"/></g><g transform="translate(-126,-62) scale(1,1)"><path fill="none" stroke="#000000" d="M 198.351318359375 107.64 L 211.11495472301135 125" stroke-miterlimit="10"/></g><g transform="translate(-126,-62) scale(1,1)"><g><path fill="none" stroke="none"/><text fill="#000000" stroke="none" font-family="Arial" font-size="13px" font-style="normal" font-weight="bold" text-decoration="none" x="151.74365234375" y="145.5">Porteur de carte</text></g></g><g transform="translate(-126,-62) scale(1,1)"><path fill="#ffffff" stroke="none" d="M 190.24844122869317 484.23 C 190.24844122869317 478.027841696 195.21368419945682 473 201.338623046875 473 C 207.46356189429318 473 212.42880486505683 478.027841696 212.42880486505683 484.23 C 212.42880486505683 490.43215830400004 207.46356189429318 495.46 201.338623046875 495.46 C 195.21368419945682 495.46 190.24844122869317 490.43215830400004 190.24844122869317 484.23 Z"/></g><g transform="translate(-126,-62) scale(1,1)"><path fill="none" stroke="#000000" d="M 190.24844122869317 484.23 C 190.24844122869317 478.027841696 195.21368419945682 473 201.338623046875 473 C 207.46356189429318 473 212.42880486505683 478.027841696 212.42880486505683 484.23 C 212.42880486505683 490.43215830400004 207.46356189429318 495.46 201.338623046875 495.46 C 195.21368419945682 495.46 190.24844122869317 490.43215830400004 190.24844122869317 484.23 Z" stroke-miterlimit="10"/></g><g transform="translate(-126,-62) scale(1,1)"><path fill="none" stroke="#000000" d="M 201.338623046875 495.46 L 201.338623046875 517.54" stroke-miterlimit="10"/></g><g transform="translate(-126,-62) scale(1,1)"><path fill="none" stroke="#000000" d="M 189.59607759232955 503.74 L 213.08116850142045 503.74" stroke-miterlimit="10"/></g><g transform="translate(-126,-62) scale(1,1)"><path fill="none" stroke="#000000" d="M 201.338623046875 517.54 L 185.0295321377841 540" stroke-miterlimit="10"/></g><g transform="translate(-126,-62) scale(1,1)"><path fill="none" stroke="#000000" d="M 201.338623046875 517.54 L 217.6477139559659 540" stroke-miterlimit="10"/></g><g transform="translate(-126,-62) scale(1,1)"><g><path fill="none" stroke="none"/><text fill="#000000" stroke="none" font-family="Arial" font-size="13px" font-style="normal" font-weight="bold" text-decoration="none" x="172.07275390625" y="560.5">Opérateur</text></g></g><g transform="translate(-126,-62) scale(1,1)"><path fill="#ffffff" stroke="none" d="M 174.79436008522728 305.68 C 174.79436008522728 300.886167936 178.68020241017274 297 183.4736328125 297 C 188.26706321482726 297 192.15290553977272 300.886167936 192.15290553977272 305.68 C 192.15290553977272 310.473832064 188.26706321482726 314.36 183.4736328125 314.36 C 178.68020241017274 314.36 174.79436008522728 310.473832064 174.79436008522728 305.68 Z"/></g><g transform="translate(-126,-62) scale(1,1)"><path fill="none" stroke="#000000" d="M 174.79436008522728 305.68 C 174.79436008522728 300.886167936 178.68020241017274 297 183.4736328125 297 C 188.26706321482726 297 192.15290553977272 300.886167936 192.15290553977272 305.68 C 192.15290553977272 310.473832064 188.26706321482726 314.36 183.4736328125 314.36 C 178.68020241017274 314.36 174.79436008522728 310.473832064 174.79436008522728 305.68 Z" stroke-miterlimit="10"/></g><g transform="translate(-126,-62) scale(1,1)"><path fill="none" stroke="#000000" d="M 183.4736328125 314.36 L 183.4736328125 331.64" stroke-miterlimit="10"/></g><g transform="translate(-126,-62) scale(1,1)"><path fill="none" stroke="#000000" d="M 174.28381463068183 320.84 L 192.66345099431817 320.84" stroke-miterlimit="10"/></g><g transform="translate(-126,-62) scale(1,1)"><path fill="none" stroke="#000000" d="M 183.4736328125 331.64 L 170.70999644886365 349" stroke-miterlimit="10"/></g><g transform="translate(-126,-62) scale(1,1)"><path fill="none" stroke="#000000" d="M 183.4736328125 331.64 L 196.23726917613635 349" stroke-miterlimit="10"/></g><g transform="translate(-126,-62) scale(1,1)"><g><path fill="none" stroke="none"/><text fill="#000000" stroke="none" font-family="Arial" font-size="13px" font-style="normal" font-weight="bold" text-decoration="none" x="143.359619140625" y="369.5">Client banque</text></g></g><g transform="translate(-126,-62) scale(1,1)"><path fill="#ffffff" stroke="none" d="M 685.4093503196023 161.68 C 685.4093503196023 156.886167936 689.2951926445477 153 694.088623046875 153 C 698.8820534492023 153 702.7678957741477 156.886167936 702.7678957741477 161.68 C 702.7678957741477 166.47383206400002 698.8820534492023 170.36 694.088623046875 170.36 C 689.2951926445477 170.36 685.4093503196023 166.47383206400002 685.4093503196023 161.68 Z"/></g><g transform="translate(-126,-62) scale(1,1)"><path fill="none" stroke="#000000" d="M 685.4093503196023 161.68 C 685.4093503196023 156.886167936 689.2951926445477 153 694.088623046875 153 C 698.8820534492023 153 702.7678957741477 156.886167936 702.7678957741477 161.68 C 702.7678957741477 166.47383206400002 698.8820534492023 170.36 694.088623046875 170.36 C 689.2951926445477 170.36 685.4093503196023 166.47383206400002 685.4093503196023 161.68 Z" stroke-miterlimit="10"/></g><g transform="translate(-126,-62) scale(1,1)"><path fill="none" stroke="#000000" d="M 694.088623046875 170.36 L 694.088623046875 187.64" stroke-miterlimit="10"/></g><g transform="translate(-126,-62) scale(1,1)"><path fill="none" stroke="#000000" d="M 684.8988048650568 176.84 L 703.2784412286932 176.84" stroke-miterlimit="10"/></g><g transform="translate(-126,-62) scale(1,1)"><path fill="none" stroke="#000000" d="M 694.088623046875 187.64 L 681.3249866832386 205" stroke-miterlimit="10"/></g><g transform="translate(-126,-62) scale(1,1)"><path fill="none" stroke="#000000" d="M 694.088623046875 187.64 L 706.8522594105114 205" stroke-miterlimit="10"/></g><g transform="translate(-126,-62) scale(1,1)"><g><path fill="none" stroke="none"/><text fill="#000000" stroke="none" font-family="Arial" font-size="13px" font-style="normal" font-weight="normal" text-decoration="none" x="666.273193359375" y="223.5">«system»</text></g></g><g transform="translate(-126,-62) scale(1,1)"><g><path fill="none" stroke="none"/><text fill="#000000" stroke="none" font-family="Arial" font-size="13px" font-style="normal" font-weight="bold" text-decoration="none" x="661.925048828125" y="238.5">S.I.Banque</text></g></g><g transform="translate(-126,-62) scale(1,1)"><path fill="#ffffff" stroke="none" d="M 703.4684323508523 361.68 C 703.4684323508523 356.886167936 707.3542746757977 353 712.147705078125 353 C 716.9411354804523 353 720.8269778053977 356.886167936 720.8269778053977 361.68 C 720.8269778053977 366.473832064 716.9411354804523 370.36 712.147705078125 370.36 C 707.3542746757977 370.36 703.4684323508523 366.473832064 703.4684323508523 361.68 Z"/></g><g transform="translate(-126,-62) scale(1,1)"><path fill="none" stroke="#000000" d="M 703.4684323508523 361.68 C 703.4684323508523 356.886167936 707.3542746757977 353 712.147705078125 353 C 716.9411354804523 353 720.8269778053977 356.886167936 720.8269778053977 361.68 C 720.8269778053977 366.473832064 716.9411354804523 370.36 712.147705078125 370.36 C 707.3542746757977 370.36 703.4684323508523 366.473832064 703.4684323508523 361.68 Z" stroke-miterlimit="10"/></g><g transform="translate(-126,-62) scale(1,1)"><path fill="none" stroke="#000000" d="M 712.147705078125 370.36 L 712.147705078125 387.64" stroke-miterlimit="10"/></g><g transform="translate(-126,-62) scale(1,1)"><path fill="none" stroke="#000000" d="M 702.9578868963068 376.84 L 721.3375232599432 376.84" stroke-miterlimit="10"/></g><g transform="translate(-126,-62) scale(1,1)"><path fill="none" stroke="#000000" d="M 712.147705078125 387.64 L 699.3840687144886 405" stroke-miterlimit="10"/></g><g transform="translate(-126,-62) scale(1,1)"><path fill="none" stroke="#000000" d="M 712.147705078125 387.64 L 724.9113414417614 405" stroke-miterlimit="10"/></g><g transform="translate(-126,-62) scale(1,1)"><g><path fill="none" stroke="none"/><text fill="#000000" stroke="none" font-family="Arial" font-size="13px" font-style="normal" font-weight="bold" text-decoration="none" x="665.181396484375" y="425.5">Sys.Autorisation</text></g></g><g transform="translate(-126,-62) scale(1,1)"><path fill="none" stroke="#000000" d="M 249 152 L 436 303" stroke-miterlimit="10"/></g><g transform="translate(-126,-62) scale(1,1)"><g><path fill="none" stroke="none"/><text fill="#000000" stroke="none" font-family="Arial" font-size="13px" font-style="normal" font-weight="normal" text-decoration="none" x="246.5" y="181.5">0..1</text></g></g><g transform="translate(-126,-62) scale(1,1)"><path fill="none" stroke="#000000" d="M 244 486 L 435 339" stroke-miterlimit="10"/></g><g transform="translate(-126,-62) scale(1,1)"><g><path fill="none" stroke="none"/><text fill="#000000" stroke="none" font-family="Arial" font-size="13px" font-style="normal" font-weight="normal" text-decoration="none" x="257.5" y="488.5">0..1</text></g></g><g transform="translate(-126,-62) scale(1,1)"><path fill="none" stroke="#000000" d="M 232 333 L 407 324" stroke-miterlimit="10"/></g><g transform="translate(-126,-62) scale(1,1)"><g><path fill="none" stroke="none"/><text fill="#000000" stroke="none" font-family="Arial" font-size="13px" font-style="normal" font-weight="normal" text-decoration="none" x="243.5" y="350.5">0..1</text></g></g><g transform="translate(-126,-62) scale(1,1)"><path fill="none" stroke="#000000" d="M 655 218 L 493 303" stroke-miterlimit="10"/></g><g transform="translate(-126,-62) scale(1,1)"><g><path fill="none" stroke="none"/><text fill="#000000" stroke="none" font-family="Arial" font-size="13px" font-style="normal" font-weight="normal" text-decoration="none" x="619.5" y="222.5">0..1</text></g></g><g transform="translate(-126,-62) scale(1,1)"><path fill="none" stroke="#000000" d="M 655 375 L 510 335" stroke-miterlimit="10"/></g><g transform="translate(-126,-62) scale(1,1)"><g><path fill="none" stroke="none"/><text fill="#000000" stroke="none" font-family="Arial" font-size="13px" font-style="normal" font-weight="normal" text-decoration="none" x="626.5" y="363.5">0..1</text></g></g><g transform="translate(-126,-62) scale(1,1)"><path fill="#ffffff" stroke="none" d="M 464 160 L 522.57177734375 160 L 532.57177734375 170 L 532.57177734375 198 L 464 198 L 464 160"/></g><g transform="translate(-126,-62) scale(1,1)"><path fill="none" stroke="#000000" d="M 464 160 L 522.57177734375 160 L 532.57177734375 170 L 532.57177734375 198 L 464 198 L 464 160 L 464 160" stroke-miterlimit="10"/></g><g transform="translate(-126,-62) scale(1,1)"><path fill="none" stroke="#000000" d="M 522.57177734375 160 L 522.57177734375 170 L 532.57177734375 170 L 522.57177734375 160" stroke-miterlimit="10"/></g><g transform="translate(-126,-62) scale(1,1)"><g><path fill="none" stroke="none"/><text fill="#000000" stroke="none" font-family="Arial" font-size="13px" font-style="normal" font-weight="normal" text-decoration="none" x="469" y="178">Système</text><text fill="#000000" stroke="none" font-family="Arial" font-size="13px" font-style="normal" font-weight="normal" text-decoration="none" x="469" y="191">à l'étude</text></g></g><g transform="translate(-126,-62) scale(1,1)"><path fill="none" stroke="#000000" d="M 492 200 L 463 303" stroke-miterlimit="10" stroke-dasharray="3"/></g><g transform="translate(-126,-62) scale(1,1)"><path fill="#ffffff" stroke="none" d="M 176 216 L 236 216 L 246 226 L 246 254 L 176 254 L 176 216"/></g><g transform="translate(-126,-62) scale(1,1)"><path fill="none" stroke="#000000" d="M 176 216 L 236 216 L 246 226 L 246 254 L 176 254 L 176 216 L 176 216" stroke-miterlimit="10"/></g><g transform="translate(-126,-62) scale(1,1)"><path fill="none" stroke="#000000" d="M 236 216 L 236 226 L 246 226 L 236 216" stroke-miterlimit="10"/></g><g transform="translate(-126,-62) scale(1,1)"><g><path fill="none" stroke="none"/><text fill="#000000" stroke="none" font-family="Arial" font-size="13px" font-style="normal" font-weight="normal" text-decoration="none" x="181" y="234">{xor}</text></g></g><g transform="translate(-126,-62) scale(1,1)"><path fill="none" stroke="#000000" d="M 248 233 L 342 227" stroke-miterlimit="10" stroke-dasharray="3"/></g><g transform="translate(-126,-62) scale(1,1)"><path fill="none" stroke="#000000" d="M 235 256 L 319 328" stroke-miterlimit="10" stroke-dasharray="3"/></g></g></svg>